0.11m3min_grf.mot
version=1
nRows=15
nColumns 19
inDegrees=yes
endheader
time	1_ground_force_vx	1_ground_force_vy	1_ground_force_vz	1_ground_force_px	1_ground_force_py	1_ground_force_pz	1_ground_torque_x	1_ground_torque_y	1_ground_torque_z	2_ground_force_vx	2_ground_force_vy	2_ground_force_vz	2_ground_force_px	2_ground_force_py	2_ground_force_pz	2_ground_torque_x	2_ground_torque_y	2_ground_torque_z
            2.502500	          -24.967462	          953.983322	          -85.085658	           -0.231039	            0.006140	           -0.385991	            0.062821	           -2.400340	            0.214086	           -5.625437	         1027.484239	          122.725146	           -0.259613	            0.005632	           -0.721719	            0.003993	           -0.729356	           -0.087116
            2.503000	          -24.003322	          949.836126	          -84.830682	           -0.230969	            0.006140	           -0.385979	            0.061346	           -2.427512	            0.216803	           -4.716946	         1022.333445	          122.096296	           -0.259565	            0.005632	           -0.721652	            0.003416	           -0.740419	           -0.088428
            2.503500	          -23.129300	          944.605143	          -84.029861	           -0.230958	            0.006140	           -0.385892	            0.060195	           -2.458370	            0.218691	           -4.040692	         1016.629277	          121.512512	           -0.259593	            0.005632	           -0.721688	            0.002811	           -0.707220	           -0.084530
            2.504000	          -22.394243	          940.998398	          -83.680293	           -0.230945	            0.006140	           -0.385778	            0.060788	           -2.554299	            0.227147	           -3.080864	         1010.190946	          120.503633	           -0.259586	            0.005632	           -0.721533	            0.002018	           -0.661617	           -0.078923
            2.504500	          -21.657914	          935.407067	          -82.972381	           -0.230820	            0.006140	           -0.385945	            0.059997	           -2.591260	            0.229850	           -2.411255	         1006.328185	          119.926419	           -0.259373	            0.005633	           -0.721625	            0.001574	           -0.657105	           -0.078309
            2.505000	          -20.967594	          930.717207	          -82.260490	           -0.230808	            0.006140	           -0.385868	            0.056711	           -2.517310	            0.222490	           -1.828158	         1000.440481	          119.060448	           -0.259387	            0.005632	           -0.721585	            0.001415	           -0.774490	           -0.092171
            2.505500	          -20.094191	          926.388247	          -81.639212	           -0.230784	            0.006140	           -0.385785	            0.052103	           -2.402083	            0.211687	           -1.015383	          995.841999	          118.386689	           -0.259341	            0.005633	           -0.721577	            0.000799	           -0.783954	           -0.093197
            2.506000	          -19.037823	          919.897510	          -81.348661	           -0.230652	            0.006141	           -0.386003	            0.048691	           -2.352723	            0.208057	           -0.760880	          990.137146	          117.568436	           -0.259296	            0.005633	           -0.721633	            0.000551	           -0.717133	           -0.085152
            2.506500	          -18.485830	          916.470437	          -80.860309	           -0.230809	            0.006140	           -0.385751	            0.049343	           -2.446271	            0.215835	            0.010261	          984.066084	          116.654807	           -0.259186	            0.005633	           -0.721552	           -0.000007	           -0.632501	           -0.074979
            2.507000	          -17.520478	          910.699368	          -80.245442	           -0.230671	            0.006141	           -0.385994	            0.048116	           -2.501047	            0.220377	            0.591528	          978.729525	          116.166233	           -0.259272	            0.005633	           -0.721517	           -0.000396	           -0.654947	           -0.077736
            2.507500	          -16.692481	          905.828921	          -79.488814	           -0.230698	            0.006140	           -0.385813	            0.046005	           -2.496513	            0.219075	            1.501285	          973.210952	          115.395293	           -0.259139	            0.005634	           -0.721672	           -0.000963	           -0.624266	           -0.074020
            2.508000	          -16.048619	          900.779640	          -79.053483	           -0.230627	            0.006140	           -0.385818	            0.043563	           -2.445090	            0.214584	            2.040334	          966.585344	          114.855203	           -0.259166	            0.005633	           -0.721565	           -0.001338	           -0.633881	           -0.075321
            2.508500	          -15.358363	          896.450251	          -78.340046	           -0.230407	            0.006139	           -0.385706	            0.041070	           -2.397237	            0.209493	            2.764625	          960.514114	          113.941594	           -0.259052	            0.005634	           -0.721542	           -0.002055	           -0.713998	           -0.084698
            2.509000	          -14.255077	          890.318149	          -77.589511	           -0.230490	            0.006140	           -0.385814	            0.036404	           -2.273650	            0.198144	            3.347036	          954.810779	          113.029345	           -0.259189	            0.005633	           -0.721443	           -0.002596	           -0.740502	           -0.087660
            2.509500	          -13.382148	          885.449405	          -77.199843	           -0.230392	            0.006140	           -0.385794	            0.034695	           -2.295661	            0.200152	            4.117491	          948.924087	          112.069438	           -0.258963	            0.005634	           -0.721459	           -0.003074	           -0.708515	           -0.083677
